<svg viewBox="0 0 24 24" fill="none" xmlns="http://www.w3.org/2000/svg">
  <circle cx="12" cy="12" r="2" fill="#61DAFB"/>
  <path d="M12 1C15.5 1 19 2.5 21.5 5.5C22.5 6.5 22.5 8 21.5 9C19 12 15.5 13.5 12 13.5C8.5 13.5 5 12 2.5 9C1.5 8 1.5 6.5 2.5 5.5C5 2.5 8.5 1 12 1Z" stroke="#61DAFB" stroke-width="1" fill="none"/>
  <path d="M12 23C8.5 23 5 21.5 2.5 18.5C1.5 17.5 1.5 16 2.5 15C5 12 8.5 10.5 12 10.5C15.5 10.5 19 12 21.5 15C22.5 16 22.5 17.5 21.5 18.5C19 21.5 15.5 23 12 23Z" stroke="#61DAFB" stroke-width="1" fill="none"/>
  <path d="M7 4.5C8.5 8 10.5 10 12 12C13.5 14 15.5 16 17 19.5C17.5 20.5 17 21.5 16 21.5C12.5 21.5 9 20 6.5 17C5.5 16 5.5 14.5 6.5 13.5C7.5 10.5 8.5 7.5 7 4.5Z" stroke="#61DAFB" stroke-width="1" fill="none"/>
</svg>
