<svg viewBox="0 0 24 24" fill="none" xmlns="http://www.w3.org/2000/svg">
  <path d="M12 6C9.33 6 7.67 7.33 7 10C8 8.67 9.17 8.17 10.5 8.5C11.44 8.73 12.08 9.37 12.78 10.08C14.04 11.36 15.56 12.9 18 12.9C20.67 12.9 22.33 11.57 23 8.9C22 10.23 20.83 10.73 19.5 10.4C18.56 10.17 17.92 9.53 17.22 8.82C15.96 7.54 14.44 6 12 6ZM6 12.9C3.33 12.9 1.67 14.23 1 16.9C2 15.57 3.17 15.07 4.5 15.4C5.44 15.63 6.08 16.27 6.78 16.98C8.04 18.26 9.56 19.8 12 19.8C14.67 19.8 16.33 18.47 17 15.8C16 17.13 14.83 17.63 13.5 17.3C12.56 17.07 11.92 16.43 11.22 15.72C9.96 14.44 8.44 12.9 6 12.9Z" fill="#06B6D4"/>
</svg>
